<svg xmlns="http://www.w3.org/2000/svg" viewBox="0 0 64 64" width="64px" height="64px"><path fill="#f6d397" d="M5.015,7.244l5.466,45.246c0.194,1.603,1.337,2.935,2.9,3.379l17.535,4.977	c0.709,0.201,1.46,0.206,2.172,0.013l18.442-4.996c1.614-0.437,2.789-1.817,2.955-3.471l4.549-45.187C59.153,6.024,58.22,5,57.025,5	H7.019C5.809,5,4.87,6.051,5.015,7.244z"/><path fill="#f9e3ae" d="M52.357,10H32v46c0.298,0.002,0.595-0.039,0.885-0.123l15.002-4.371	c1.313-0.382,2.269-1.59,2.404-3.037l3.701-36.539C54.088,10.896,53.329,10,52.357,10z"/><path fill="#8d6c9f" d="M32.025,62c-0.465,0-0.93-0.064-1.382-0.191l-17.536-4.978c-1.956-0.556-3.377-2.213-3.62-4.221	L4.022,7.364v0C3.919,6.515,4.186,5.66,4.755,5.018C5.328,4.371,6.153,4,7.019,4h50.006c0.854,0,1.672,0.362,2.244,0.994	c0.568,0.627,0.845,1.47,0.761,2.311L55.48,52.492c-0.206,2.052-1.688,3.794-3.689,4.336L33.35,61.824	C32.916,61.941,32.471,62,32.025,62z M7.019,6C6.721,6,6.448,6.122,6.252,6.344C6.06,6.561,5.973,6.838,6.008,7.124v0l5.466,45.246	c0.146,1.206,1.002,2.202,2.181,2.537l17.535,4.977c0.537,0.152,1.102,0.155,1.637,0.009l18.442-4.996	c1.206-0.326,2.098-1.373,2.222-2.605l4.549-45.187c0.029-0.284-0.062-0.557-0.253-0.769C57.59,6.119,57.319,6,57.025,6H7.019z"/><path fill="#8d6c9f" d="M57,12c-0.552,0-1-0.448-1-1V9c0-0.552,0.448-1,1-1s1,0.448,1,1v2C58,11.552,57.552,12,57,12z M52,12	c-0.552,0-1-0.448-1-1V9c0-0.552,0.448-1,1-1s1,0.448,1,1v2C53,11.552,52.552,12,52,12z M47,12c-0.552,0-1-0.448-1-1V9	c0-0.552,0.448-1,1-1s1,0.448,1,1v2C48,11.552,47.552,12,47,12z M42,12c-0.552,0-1-0.448-1-1V9c0-0.552,0.448-1,1-1s1,0.448,1,1v2	C43,11.552,42.552,12,42,12z M37,12c-0.552,0-1-0.448-1-1V9c0-0.552,0.448-1,1-1s1,0.448,1,1v2C38,11.552,37.552,12,37,12z M32,12	c-0.552,0-1-0.448-1-1V9c0-0.552,0.448-1,1-1s1,0.448,1,1v2C33,11.552,32.552,12,32,12z M27,12c-0.552,0-1-0.448-1-1V9	c0-0.552,0.448-1,1-1s1,0.448,1,1v2C28,11.552,27.552,12,27,12z M22,12c-0.552,0-1-0.448-1-1V9c0-0.552,0.448-1,1-1s1,0.448,1,1v2	C23,11.552,22.552,12,22,12z M17,12c-0.552,0-1-0.448-1-1V9c0-0.552,0.448-1,1-1s1,0.448,1,1v2C18,11.552,17.552,12,17,12z M12,12	c-0.552,0-1-0.448-1-1V9c0-0.552,0.448-1,1-1s1,0.448,1,1v2C13,11.552,12.552,12,12,12z M7,12c-0.552,0-1-0.448-1-1V9	c0-0.552,0.448-1,1-1s1,0.448,1,1v2C8,11.552,7.552,12,7,12z"/><path fill="#8d6c9f" d="M32.023,57.002l-5.296-1.503c-0.531-0.151-0.84-0.704-0.689-1.235	c0.151-0.531,0.703-0.84,1.235-0.689l4.763,1.352l3.702-1.003c0.539-0.14,1.083,0.171,1.227,0.704	c0.145,0.533-0.171,1.083-0.704,1.227L32.023,57.002z M40,54.806c-0.441,0-0.844-0.293-0.965-0.739	c-0.144-0.533,0.171-1.083,0.704-1.227l2-0.541c0.533-0.144,1.082,0.17,1.227,0.704c0.144,0.533-0.171,1.083-0.704,1.227l-2,0.541	C40.174,54.794,40.086,54.806,40,54.806z"/><path fill="#faefde" d="M45,17c-8,0-16,0-24,0c-0.778,6-1.556,12-2.334,18c0,0,0,0,0,0h21.29l-0.901,7.625l-6.961,2.122	l-6.147-2.082L25.37,39h-6.074l1.289,8.184l11.118,3.765C31.804,50.983,31.908,51,32.013,51c0.095,0,0.19-0.014,0.282-0.042	l11.643-3.548c0.374-0.114,0.646-0.439,0.691-0.827l1.945-16.465C46.645,29.523,46.181,29,45.582,29C38.721,29,31.861,29,25,29	c0.333-2,0.667-4,1-6c4.819,0,9.637,0,14.456,0c0.181,0.667,0.363,1.333,0.544,2c2,0,4,0,6,0C46.333,22.333,45.667,19.667,45,17z"/><path fill="#8d6c9f" d="M32.013,52c-0.212,0-0.423-0.034-0.626-0.102l-11.123-3.767c-0.352-0.12-0.609-0.424-0.667-0.792	l-1.289-8.184c-0.045-0.289,0.038-0.583,0.228-0.806S19.003,38,19.296,38h6.074c0.492,0,0.911,0.358,0.988,0.845l0.483,3.067	l5.269,1.785l6.029-1.838L38.831,36H18.666c-0.288,0-0.562-0.124-0.751-0.34c-0.19-0.216-0.278-0.503-0.241-0.789l2.334-18	C20.073,16.373,20.498,16,21,16h24c0.459,0,0.859,0.313,0.97,0.757l2,8c0.075,0.299,0.007,0.615-0.182,0.858S47.308,26,47,26h-6	c-0.451,0-0.847-0.302-0.965-0.738L39.692,24H26.847l-0.667,4h19.401c0.571,0,1.116,0.245,1.495,0.671	c0.379,0.427,0.558,0.998,0.491,1.565L45.622,46.7c-0.09,0.781-0.637,1.436-1.392,1.667l-11.644,3.548	C32.399,51.971,32.207,52,32.013,52z M21.478,46.431l10.546,3.571l11.623-3.548l1.935-16.453L25,30	c-0.294,0-0.573-0.129-0.763-0.354c-0.19-0.225-0.271-0.521-0.223-0.811l1-6C25.094,22.354,25.511,22,26,22h14.456	c0.451,0,0.847,0.302,0.965,0.738L41.764,24h3.955l-1.5-6h-22.34l-2.075,16h20.152c0.286,0,0.558,0.122,0.748,0.335	c0.189,0.214,0.279,0.498,0.246,0.782l-0.901,7.625c-0.047,0.395-0.322,0.724-0.702,0.839l-6.961,2.122	c-0.2,0.06-0.414,0.057-0.612-0.009l-6.147-2.082c-0.352-0.12-0.609-0.424-0.667-0.792L24.515,40h-4.049L21.478,46.431z"/></svg>